<svg xmlns="http://www.w3.org/2000/svg" viewBox="0 0 158.83 14.53"><defs><style>.cls-1{fill:#b0b0b0;}</style></defs><g id="Слой_3" data-name="Слой 3"><g id="Подвал"><path id="Лого" class="cls-1" d="M10.79,7.34v4.41H8.45V1.35h2.34v6ZM3.06.18A2.45,2.45,0,0,0,2,.7a2,2,0,0,0-.55.85A3.72,3.72,0,0,0,1.33,2.7V5A1.63,1.63,0,0,1,1,6a1.16,1.16,0,0,1-1,.39V8.15a1.16,1.16,0,0,1,1,.39,1.68,1.68,0,0,1,.3,1v2.26A3.67,3.67,0,0,0,1.49,13a1.87,1.87,0,0,0,.55.85,2.45,2.45,0,0,0,1,.52,5.87,5.87,0,0,0,1.58.18h.3V12.75H4.57a1.1,1.1,0,0,1-.91-.3,1.48,1.48,0,0,1-.23-.93v-2A3.65,3.65,0,0,0,3.22,8.2a2,2,0,0,0-.84-.93,2,2,0,0,0,.84-.93A3.65,3.65,0,0,0,3.43,5V3a1.48,1.48,0,0,1,.23-.93,1.1,1.1,0,0,1,.91-.3h.37V0h-.3A5.87,5.87,0,0,0,3.06.18ZM51.65,3.94c.27.05.5.09.69.14v7.67H50.11V9H49a14.13,14.13,0,0,0-.86,1.42l-.72,1.38H45.08c.29-.65.59-1.24.89-1.78a14.52,14.52,0,0,1,.87-1.4,2.82,2.82,0,0,1-1-.85,2.15,2.15,0,0,1-.37-1.3,2.37,2.37,0,0,1,.95-2A4.35,4.35,0,0,1,49,3.69l.84,0,.9.09ZM50.11,5.46l-.47,0-.54,0A1.7,1.7,0,0,0,48,5.68a.93.93,0,0,0-.3.71.83.83,0,0,0,.12.46,1,1,0,0,0,.31.3,1.54,1.54,0,0,0,.44.16,2.52,2.52,0,0,0,.48,0h1.08Zm-23.7.63a4.89,4.89,0,0,1,.28,1.7,5.09,5.09,0,0,1-.27,1.7,3.74,3.74,0,0,1-.78,1.33,3.6,3.6,0,0,1-1.22.84,3.94,3.94,0,0,1-1.6.3,3.84,3.84,0,0,1-1.58-.3A3.5,3.5,0,0,1,20,10.82a3.94,3.94,0,0,1-.8-1.33,4.85,4.85,0,0,1-.28-1.7,4.67,4.67,0,0,1,.29-1.7A4,4,0,0,1,20,4.79,3.74,3.74,0,0,1,21.27,4a4,4,0,0,1,1.56-.3,3.94,3.94,0,0,1,1.56.3,3.54,3.54,0,0,1,1.23.84A3.78,3.78,0,0,1,26.41,6.09Zm-2,1.7A2.87,2.87,0,0,0,24,6.16a1.48,1.48,0,0,0-2.36,0,2.79,2.79,0,0,0-.42,1.63,2.82,2.82,0,0,0,.42,1.64,1.45,1.45,0,0,0,2.36,0A2.9,2.9,0,0,0,24.41,7.79Zm35.4,1.75a1.48,1.48,0,0,0-1-.36,1.46,1.46,0,0,0-1,.36,1.27,1.27,0,0,0-.43,1,1.22,1.22,0,0,0,.43,1,1.49,1.49,0,0,0,1.94,0,1.24,1.24,0,0,0,.42-1A1.26,1.26,0,0,0,59.81,9.54ZM35.55,8.67a2.09,2.09,0,0,1,.12.74,2.31,2.31,0,0,1-.19.93,1.84,1.84,0,0,1-.64.79,3.32,3.32,0,0,1-1.18.56,6.79,6.79,0,0,1-1.82.21l-.9,0-1-.08-.87-.12-.7-.13V4l.7-.12L30,3.77c.31,0,.63-.06,1-.07l.9,0a6,6,0,0,1,1.64.19,3.29,3.29,0,0,1,1.08.51,1.89,1.89,0,0,1,.6.71,1.85,1.85,0,0,1,.18.78,1.87,1.87,0,0,1-.26,1,1.55,1.55,0,0,1-.64.63,2.32,2.32,0,0,1,.42.25,2.52,2.52,0,0,1,.4.4A1.85,1.85,0,0,1,35.55,8.67ZM30.65,7h1.26a2.5,2.5,0,0,0,.9-.14.62.62,0,0,0,.35-.63.6.6,0,0,0-.39-.61,2.64,2.64,0,0,0-1-.17l-.55,0c-.23,0-.41,0-.55.05h0Zm2.81,2.36a.67.67,0,0,0-.38-.67A2.57,2.57,0,0,0,32,8.45h-1.3V10.1l.57.06.65,0A2.85,2.85,0,0,0,33,10,.68.68,0,0,0,33.46,9.31Zm-18.74-4H11.38v2h3.34l-.06,7.19H17l0-13.18H14.72Zm28.77.21a5,5,0,0,1,.17,1.33v4.66c-.32.06-.77.15-1.34.24a12.2,12.2,0,0,1-2.07.15,6.61,6.61,0,0,1-1.39-.14,3.13,3.13,0,0,1-1.07-.44,2.13,2.13,0,0,1-.69-.8,2.79,2.79,0,0,1-.24-1.22,2.25,2.25,0,0,1,.28-1.17,2.1,2.1,0,0,1,.74-.77A3.51,3.51,0,0,1,39,7a5.61,5.61,0,0,1,1.24-.13,5.88,5.88,0,0,1,.77,0,4,4,0,0,1,.55.1V6.77a1.29,1.29,0,0,0-.34-.92A1.72,1.72,0,0,0,40,5.51a8.32,8.32,0,0,0-1.12.08,5.21,5.21,0,0,0-1,.23L37.59,4l.49-.12a5.61,5.61,0,0,1,.64-.12c.23,0,.47-.07.73-.09a6.62,6.62,0,0,1,.77,0,5.19,5.19,0,0,1,1.65.22,2.61,2.61,0,0,1,1.06.65A2.32,2.32,0,0,1,43.49,5.54Zm-2,4.59h0V8.44a2.29,2.29,0,0,0-.4-.06,2.86,2.86,0,0,0-.49,0,5.74,5.74,0,0,0-.6,0,1.56,1.56,0,0,0-.49.15.9.9,0,0,0-.33.28.79.79,0,0,0-.12.45.77.77,0,0,0,.36.73,2,2,0,0,0,1,.2H41A4.2,4.2,0,0,0,41.51,10.13Zm90.17-.21H133V14h-1.91V11.75h-5.76V14h-1.91V9.92h1a3.54,3.54,0,0,0,.65-1.27,8.1,8.1,0,0,0,.33-1.6,16.15,16.15,0,0,0,.11-1.69c0-.56,0-1.06,0-1.5h6.15Zm-2.23,0V5.69h-1.83c0,.35-.05.71-.07,1.09s-.07.74-.13,1.11A9.85,9.85,0,0,1,127.15,9a4.19,4.19,0,0,1-.43,1ZM116,5.69h2.52v6.06h2.24V5.69h2.52V3.86H116Zm24.43-1a4.22,4.22,0,0,1,1,3c0,.13,0,.27,0,.43s0,.29,0,.41h-5.07a1.49,1.49,0,0,0,.64,1.1,2.59,2.59,0,0,0,1.53.4,7,7,0,0,0,1.21-.11,4.67,4.67,0,0,0,1-.28l.3,1.82a2.74,2.74,0,0,1-.48.18c-.2.06-.42.11-.66.16l-.79.11a7.87,7.87,0,0,1-.84,0,4.94,4.94,0,0,1-1.85-.31,3.69,3.69,0,0,1-1.31-.86,3.46,3.46,0,0,1-.76-1.3A5.06,5.06,0,0,1,134,7.86,4.87,4.87,0,0,1,134.31,6a4,4,0,0,1,.85-1.32,3.57,3.57,0,0,1,1.21-.79,3.79,3.79,0,0,1,1.4-.27A3.48,3.48,0,0,1,140.43,4.68ZM139.24,7a2.2,2.2,0,0,0-.1-.56,1.47,1.47,0,0,0-.25-.48,1.32,1.32,0,0,0-.43-.34,1.45,1.45,0,0,0-.65-.13,1.6,1.6,0,0,0-.65.12,1.41,1.41,0,0,0-.45.34,1.57,1.57,0,0,0-.28.49,3.53,3.53,0,0,0-.14.56ZM59.81,4.21a1.52,1.52,0,0,0-1-.35,1.5,1.5,0,0,0-1,.35,1.28,1.28,0,0,0-.43,1,1.28,1.28,0,0,0,.43,1,1.52,1.52,0,0,0,1.94,0,1.28,1.28,0,0,0,.42-1A1.26,1.26,0,0,0,59.81,4.21ZM157.86,6a1.63,1.63,0,0,1-.3-1V2.7a3.71,3.71,0,0,0-.17-1.15,2.06,2.06,0,0,0-.54-.85,2.72,2.72,0,0,0-1-.52A6,6,0,0,0,154.24,0h-.3V1.78h.38a1.08,1.08,0,0,1,.9.3,1.48,1.48,0,0,1,.24.93V5a3.65,3.65,0,0,0,.21,1.32,2,2,0,0,0,.84.93,1.92,1.92,0,0,0-.84.94,3.56,3.56,0,0,0-.21,1.31v2a1.48,1.48,0,0,1-.24.93,1.08,1.08,0,0,1-.9.3h-.38v1.79h.3a6,6,0,0,0,1.59-.18,2.72,2.72,0,0,0,1-.52,2.06,2.06,0,0,0,.54-.85,3.71,3.71,0,0,0,.17-1.15V9.56a1.63,1.63,0,0,1,.3-1,1.14,1.14,0,0,1,1-.39V6.38A1.14,1.14,0,0,1,157.86,6Zm-43.11.1a4.89,4.89,0,0,1,.28,1.7,5.09,5.09,0,0,1-.27,1.7,3.74,3.74,0,0,1-.78,1.33,3.6,3.6,0,0,1-1.22.84,3.94,3.94,0,0,1-1.6.3,3.84,3.84,0,0,1-1.58-.3,3.54,3.54,0,0,1-1.23-.84,3.92,3.92,0,0,1-.79-1.33,4.85,4.85,0,0,1-.28-1.7,4.67,4.67,0,0,1,.29-1.7,3.67,3.67,0,0,1,2-2.14,4.21,4.21,0,0,1,3.12,0,3.5,3.5,0,0,1,1.22.84A3.8,3.8,0,0,1,114.75,6.09Zm-2,1.7a2.87,2.87,0,0,0-.41-1.63,1.37,1.37,0,0,0-1.18-.59,1.39,1.39,0,0,0-1.19.59,2.79,2.79,0,0,0-.42,1.63A2.82,2.82,0,0,0,110,9.43a1.36,1.36,0,0,0,1.19.61,1.34,1.34,0,0,0,1.18-.61A2.9,2.9,0,0,0,112.75,7.79Zm31.76-3c0,.35,0,.71,0,1.09s0,.76-.05,1.12a8.13,8.13,0,0,1-.15,1,3.88,3.88,0,0,1-.26.87,1.81,1.81,0,0,1-.63.72,3.41,3.41,0,0,1-1.18.42l.3,1.86a5.48,5.48,0,0,0,1.41-.29,3.77,3.77,0,0,0,1-.55,3.06,3.06,0,0,0,.7-.74,4,4,0,0,0,.46-.89,6.85,6.85,0,0,0,.25-.87c.06-.31.12-.63.16-.95s.06-.65.08-1,0-.63,0-.92h1.53v6.06h2.23V3.85h-5.92Zm-70,5h1.78v4.76H74.06V11.75H66.83v2.78H64.58V9.77h1.5A10.11,10.11,0,0,0,67,7.86a12.84,12.84,0,0,0,.48-1.92,16.3,16.3,0,0,0,.19-2c0-.69,0-1.41,0-2.17V1.35h6.87ZM72.25,3.33H69.86c0,.54,0,1.1-.1,1.67s-.13,1.13-.22,1.69a14.73,14.73,0,0,1-.4,1.62,7.66,7.66,0,0,1-.63,1.46h3.74ZM83.77,5.54a5,5,0,0,1,.16,1.33v4.66c-.32.06-.76.15-1.33.24a12.2,12.2,0,0,1-2.07.15,6.61,6.61,0,0,1-1.39-.14,3.13,3.13,0,0,1-1.07-.44,2.13,2.13,0,0,1-.69-.8,2.79,2.79,0,0,1-.24-1.22,2.25,2.25,0,0,1,.28-1.17,2.1,2.1,0,0,1,.74-.77A3.44,3.44,0,0,1,79.22,7a5.7,5.7,0,0,1,1.25-.13,5.88,5.88,0,0,1,.77,0,4.27,4.27,0,0,1,.55.1V6.77a1.25,1.25,0,0,0-.35-.92,1.67,1.67,0,0,0-1.2-.34,8.32,8.32,0,0,0-1.12.08,5.21,5.21,0,0,0-1,.23L77.87,4l.49-.12A5.23,5.23,0,0,1,79,3.78q.34-.06.72-.09a6.79,6.79,0,0,1,.78,0,5.19,5.19,0,0,1,1.65.22,2.61,2.61,0,0,1,1.06.65A2.42,2.42,0,0,1,83.77,5.54Zm-2,4.59h0V8.44a2.29,2.29,0,0,0-.4-.06,3,3,0,0,0-.5,0,5.54,5.54,0,0,0-.59,0,1.41,1.41,0,0,0-.49.15.83.83,0,0,0-.33.28.79.79,0,0,0-.12.45.78.78,0,0,0,.35.73,2,2,0,0,0,1,.2h.63A4.2,4.2,0,0,0,81.79,10.13ZM99.94,5.54a5,5,0,0,1,.16,1.33v4.66c-.32.06-.76.15-1.33.24a12.2,12.2,0,0,1-2.07.15,6.61,6.61,0,0,1-1.39-.14,3,3,0,0,1-1.07-.44,2.13,2.13,0,0,1-.69-.8,2.79,2.79,0,0,1-.24-1.22,2.25,2.25,0,0,1,.28-1.17,2.1,2.1,0,0,1,.74-.77A3.44,3.44,0,0,1,95.39,7a5.7,5.7,0,0,1,1.25-.13,6,6,0,0,1,.77,0A4.63,4.63,0,0,1,98,7V6.77a1.25,1.25,0,0,0-.35-.92,1.67,1.67,0,0,0-1.2-.34,8.2,8.2,0,0,0-1.12.08,5.33,5.33,0,0,0-1,.23L94,4l.49-.12a4.89,4.89,0,0,1,.64-.12q.35-.06.72-.09a6.79,6.79,0,0,1,.78,0,5.19,5.19,0,0,1,1.65.22,2.61,2.61,0,0,1,1.06.65A2.42,2.42,0,0,1,99.94,5.54Zm-2,2.9a2.29,2.29,0,0,0-.4-.06,3,3,0,0,0-.5,0,5.54,5.54,0,0,0-.59,0,1.41,1.41,0,0,0-.49.15.83.83,0,0,0-.33.28.79.79,0,0,0-.12.45.78.78,0,0,0,.35.73,2,2,0,0,0,1,.2h.63a4.2,4.2,0,0,0,.48,0h0ZM85.21,5.69h2.52v6.06H90V5.69h2.52V3.86H85.21Zm16.49,2.6H106v-2H101.7Z"/></g></g></svg>
